<svg xmlns="http://www.w3.org/2000/svg" width="2020.043" height="356.33" viewBox="0 0 2020.043 356.33">
  <path id="Path_809" data-name="Path 809" d="M220.531-77.632H91.373L64.35,0H4.122L130.074-333.43h51.984L308.239,0H247.782Zm-112.9-46.717h96.64l-48.32-138.318Zm450.451,2.977q0,57.709-25.763,91.831T461.443,4.58q-43.511,0-67.785-31.374L390.91,0H340.529V-351.75h55.648v127.784q24.045-28.4,64.808-28.4,45.343,0,71.22,33.664t25.877,94.121Zm-55.648-4.809q0-40.3-14.2-60.457t-41.221-20.152q-36.183,0-50.839,31.6V-73.052q14.885,32.29,51.3,32.29,26.106,0,40.3-19.465t14.656-58.854Zm91.831,0q0-36.412,14.427-65.61t40.534-44.885q26.106-15.687,60-15.687,50.152,0,81.411,32.29t33.778,85.647l.229,13.053q0,36.641-14.084,65.5t-40.3,44.656q-26.221,15.8-60.572,15.8-52.442,0-83.93-34.923t-31.488-93.09Zm55.648,4.809q0,38.244,15.8,59.885t43.969,21.641q28.167,0,43.854-21.984t15.687-64.35q0-37.557-16.145-59.541t-43.854-21.984q-27.251,0-43.282,21.641T649.913-121.372Zm371.9,97.1Q997.312,4.58,952.2,4.58q-40.3,0-61.03-23.587T870.444-87.25V-247.782h55.648V-87.937q0,47.175,39.16,47.175,40.534,0,54.732-29.083V-247.782h55.648V0h-52.442ZM1202.042-308.01v60.228h43.74v41.221h-43.74V-68.243q0,14.2,5.611,20.5t20.038,6.3a85.724,85.724,0,0,0,19.465-2.29V-.687a137.054,137.054,0,0,1-36.641,5.267q-64.121,0-64.121-70.762V-206.562h-40.763v-41.221h40.763V-308.01Zm283.507-25.419L1581.73-77.861l95.953-255.568h74.884V0h-57.709V-109.922l5.725-147.021L1602.111,0h-41.45l-98.243-256.713,5.725,146.792V0h-57.709V-333.43ZM1924.778,4.58q-52.9,0-85.762-33.32t-32.862-88.739v-6.87q0-37.1,14.313-66.3t40.19-45.457q25.877-16.259,57.709-16.259,50.61,0,78.2,32.29t27.595,91.373v22.442H1862.26q2.519,30.687,20.5,48.549t45.228,17.862q38.244,0,62.289-30.916l30,28.625A100.182,100.182,0,0,1,1980.54-7.672Q1955.693,4.58,1924.778,4.58Zm-6.641-212.287q-22.9,0-36.984,16.03t-17.977,44.656H1969.2v-4.122q-1.832-27.938-14.885-42.251T1918.137-207.707Z" transform="translate(-4.122 351.75)" fill="rgba(40,228,157,0.08)"/>
</svg>
