<svg xmlns="http://www.w3.org/2000/svg" width="27.413" height="32.25" viewBox="0 0 27.413 32.25">
  <g id="Paper_Download" data-name="Paper Download" transform="translate(-3.5 -2)">
    <path id="Path_718" data-name="Path 718" d="M28.186,13.322c-.728,0-1.692-.016-2.893-.016a5.38,5.38,0,0,1-5.336-5.379V2.74A.736.736,0,0,0,19.226,2H10.7A7.24,7.24,0,0,0,3.5,9.271V26.646a7.568,7.568,0,0,0,7.531,7.6h12.7A7.217,7.217,0,0,0,30.913,27V14.047a.732.732,0,0,0-.731-.739C29.5,13.313,28.682,13.322,28.186,13.322Z" fill="#28d7e4" opacity="0.4"/>
    <path id="Path_719" data-name="Path 719" d="M16.587,2.658a.77.77,0,0,0-1.324.539V7.448A3.266,3.266,0,0,0,18.514,10.7c1.126.013,2.686.016,4.012.013a.769.769,0,0,0,.553-1.3C21.378,7.64,18.332,4.47,16.587,2.658Z" transform="translate(7.205 0.257)" fill="#28d7e4" opacity="0.4"/>
    <path id="Path_720" data-name="Path 720" d="M19.39,15.142a1.2,1.2,0,0,0-1.7,0l-2.562,2.575V9.937a1.2,1.2,0,0,0-2.4,0v7.784l-2.564-2.575a1.2,1.2,0,0,0-1.7,1.695l4.617,4.638h0a1.2,1.2,0,0,0,.387.26,1.221,1.221,0,0,0,.463.092,1.194,1.194,0,0,0,.464-.094,1.214,1.214,0,0,0,.384-.256l0,0,4.615-4.638A1.2,1.2,0,0,0,19.39,15.142Z" transform="translate(2.824 4.126)" fill="#28d7e4"/>
  </g>
</svg>
