<svg xmlns="http://www.w3.org/2000/svg" width="57.675" height="57.675" viewBox="0 0 57.675 57.675">
  <g id="Group_7" data-name="Group 7" transform="translate(-280 -31)">
    <path id="Path_44" data-name="Path 44" d="M16.408,0h24.86A16.408,16.408,0,0,1,57.675,16.408v24.86A16.408,16.408,0,0,1,41.267,57.675H16.408A16.408,16.408,0,0,1,0,41.267V16.408A16.408,16.408,0,0,1,16.408,0Z" transform="translate(280 31)" fill="#030c17"/>
    <path id="Path_44_-_Outline" data-name="Path 44 - Outline" d="M16.408,1.989A14.405,14.405,0,0,0,1.989,16.408v24.86A14.405,14.405,0,0,0,16.408,55.686h24.86A14.405,14.405,0,0,0,55.686,41.267V16.408A14.405,14.405,0,0,0,41.267,1.989H16.408m0-1.989h24.86A16.408,16.408,0,0,1,57.675,16.408v24.86A16.408,16.408,0,0,1,41.267,57.675H16.408A16.408,16.408,0,0,1,0,41.267V16.408A16.408,16.408,0,0,1,16.408,0Z" transform="translate(280 31)" fill="#28e49d"/>
    <g id="Group_6" data-name="Group 6" transform="translate(297.413 42.441)">
      <path id="Path_43" data-name="Path 43" d="M17.106-68.961h8.242v23.525a11.249,11.249,0,0,1-1.519,5.84,10.37,10.37,0,0,1-4.239,3.98A12.955,12.955,0,0,1,13.527-34.2q-5.6,0-8.713-2.826T1.705-45.035H9.994a5.661,5.661,0,0,0,.812,3.415,3.217,3.217,0,0,0,2.72,1.06,3.076,3.076,0,0,0,2.649-1.283,6.031,6.031,0,0,0,.93-3.591Z" transform="translate(-1.705 71.447)" fill="#28e49d"/>
      <path id="Path_42" data-name="Path 42" d="M17.106-68.961h8.242v23.525a11.249,11.249,0,0,1-1.519,5.84,10.37,10.37,0,0,1-4.239,3.98A12.955,12.955,0,0,1,13.527-34.2q-5.6,0-8.713-2.826T1.705-45.035H9.994a5.661,5.661,0,0,0,.812,3.415,3.217,3.217,0,0,0,2.72,1.06,3.076,3.076,0,0,0,2.649-1.283,6.031,6.031,0,0,0,.93-3.591Z" transform="translate(1.775 68.961)" fill="#fff"/>
    </g>
    <path id="Path_729" data-name="Path 729" d="M4.844-9.859l9.219,3.5v3.8L.984-8.391v-3.016l13.078-5.812v3.8Z" transform="translate(289 58.5)" fill="#28e49d"/>
  </g>
</svg>
